<?xml version="1.0" standalone="no"?>
<!DOCTYPE svg PUBLIC "-//W3C//DTD SVG 20010904//EN"
 "http://www.w3.org/TR/2001/REC-SVG-20010904/DTD/svg10.dtd">
<svg version="1.0" xmlns="http://www.w3.org/2000/svg"
 width="512.000000pt" height="512.000000pt" viewBox="0 0 512.000000 512.000000"
 preserveAspectRatio="xMidYMid meet">

<g transform="translate(0.000000,512.000000) scale(0.100000,-0.100000)"
fill="#000000" stroke="none">
<path d="M0 2560 l0 -2560 2560 0 2560 0 0 2560 0 2560 -2560 0 -2560 0 0
-2560z m1963 1417 l39 -107 -71 -71 c-203 -203 -330 -514 -382 -934 -15 -128
-16 -530 0 -660 29 -235 97 -488 173 -639 54 -109 137 -226 209 -297 l70 -69
-37 -105 c-20 -58 -40 -108 -44 -110 -4 -2 -33 11 -65 30 -244 147 -449 434
-569 795 -74 221 -98 372 -103 652 -6 263 4 395 43 580 71 339 230 654 433
858 83 83 234 194 256 187 5 -2 27 -52 48 -110z m1233 71 c292 -176 547 -595
638 -1048 140 -698 -38 -1406 -458 -1826 -114 -114 -250 -209 -265 -186 -4 6
-22 56 -41 111 l-35 100 76 78 c189 194 308 470 365 848 21 140 29 509 15 675
-39 438 -177 794 -389 1003 l-69 69 38 106 c22 58 39 108 39 110 0 7 34 -8 86
-40z"/>
</g>
</svg>
